<svg xmlns="http://www.w3.org/2000/svg" width="481pt" height="291pt" viewBox="0 0 481 291" version="1.1" xmlns:xlink="http://www.w3.org/1999/xlink">
  <g id="surface2" transform="matrix(1,0,0,1,0,0)" data-tpl_matrix="1,0,0,1,0,0">
    <path style="stroke:none;fill-rule:evenodd;fill:rgb(61.568627%,84.313725%,82.745098%);fill-opacity:1" d="M 329 97.101562 L 294.398438 97.101562 L 294.398438 91.101562 L 329 91.101562 L 329 97.101562 "/>
    <path style="stroke:none;fill-rule:evenodd;fill:rgb(61.568627%,84.313725%,82.745098%);fill-opacity:1" d="M 329 137.101562 L 293.398438 137.101562 L 293.398438 131.101562 L 329 131.101562 L 329 137.101562 "/>
    <path style="stroke:none;fill-rule:evenodd;fill:rgb(30.980392%,76.078431%,72.549020%);fill-opacity:1" d="M 347.898438 117.101562 L 298.101562 117.101562 L 298.101562 111.101562 L 347.898438 111.101562 L 347.898438 117.101562 "/>
    <path style="stroke:none;fill-rule:evenodd;fill:rgb(61.568627%,84.313725%,82.745098%);fill-opacity:1" d="M 189.898438 97.101562 L 154.300781 97.101562 L 154.300781 91.101562 L 189.898438 91.101562 L 189.898438 97.101562 "/>
    <path style="stroke:none;fill-rule:evenodd;fill:rgb(61.568627%,84.313725%,82.745098%);fill-opacity:1" d="M 189.898438 137.101562 L 154.300781 137.101562 L 154.300781 131.101562 L 189.898438 131.101562 L 189.898438 137.101562 "/>
    <path style="stroke:none;fill-rule:evenodd;fill:rgb(30.980392%,76.078431%,72.549020%);fill-opacity:1" d="M 183.898438 117.101562 L 135.398438 117.101562 L 135.398438 111.101562 L 183.898438 111.101562 L 183.898438 117.101562 "/>
    <path style="stroke:none;fill-rule:evenodd;fill:rgb(30.980392%,76.078431%,72.549020%);fill-opacity:1" d="M 188.648438 114.101562 C 188.714844 106.601562 190.167969 99.601562 193 93.101562 C 195.832031 86.601562 199.765625 80.917969 204.800781 76.050781 C 209.832031 71.183594 215.632812 67.433594 222.199219 64.800781 L 222.199219 58.398438 C 216.433594 60.433594 211.132812 63.265625 206.300781 66.898438 C 201.5 70.5 197.332031 74.734375 193.800781 79.601562 C 190.265625 84.5 187.535156 89.851562 185.601562 95.648438 C 183.667969 101.484375 182.683594 107.632812 182.648438 114.101562 C 182.683594 120.566406 183.667969 126.699219 185.601562 132.5 C 187.535156 138.332031 190.265625 143.699219 193.800781 148.601562 C 197.332031 153.464844 201.515625 157.699219 206.351562 161.300781 C 211.148438 164.933594 216.433594 167.765625 222.199219 169.800781 L 222.199219 163.398438 C 215.601562 160.765625 209.800781 157.015625 204.800781 152.148438 C 199.765625 147.285156 195.832031 141.601562 193 135.101562 C 190.167969 128.601562 188.714844 121.601562 188.648438 114.101562 "/>
    <path style="stroke:none;fill-rule:evenodd;fill:rgb(30.980392%,76.078431%,72.549020%);fill-opacity:1" d="M 300.699219 114.101562 C 300.667969 107.5 299.648438 101.25 297.648438 95.351562 C 295.617188 89.417969 292.765625 83.984375 289.101562 79.050781 C 285.433594 74.117188 281.117188 69.851562 276.148438 66.25 C 271.183594 62.648438 265.714844 59.882812 259.75 57.949219 L 259.75 64.300781 C 266.582031 66.832031 272.617188 70.535156 277.851562 75.398438 C 283.082031 80.300781 287.183594 86.050781 290.148438 92.648438 C 293.117188 99.285156 294.632812 106.433594 294.699219 114.101562 C 294.632812 121.765625 293.117188 128.917969 290.148438 135.550781 C 287.183594 142.148438 283.082031 147.898438 277.851562 152.800781 C 272.617188 157.699219 266.582031 161.417969 259.75 163.949219 L 259.75 170.25 C 265.714844 168.316406 271.183594 165.550781 276.148438 161.949219 C 281.117188 158.351562 285.433594 154.082031 289.101562 149.148438 C 292.765625 144.214844 295.601562 138.785156 297.601562 132.851562 C 299.632812 126.949219 300.667969 120.699219 300.699219 114.101562 "/>
    <path style="stroke:none;fill-rule:evenodd;fill:rgb(9.411765%,18.823529%,18.823529%);fill-opacity:1" d="M7.788086 1.104492L7.788086 1.104492L7.788086 1.104492Q0 1.104492 0-8.071289L0-8.071289L0-8.071289Q0-12.206055 1.416016-16.694824L1.416016-16.694824L1.416016-16.694824Q2.832031-21.183594 5.550781-25.743164L5.550781-25.743164L5.550781-25.743164Q8.326172-30.359375 11.837891-34.041016L11.837891-34.041016L11.837891-34.041016Q15.349609-37.722656 19.342773-40.285645L19.342773-40.285645L19.342773-40.285645Q23.335938-42.848633 27.697266-44.208008L27.697266-44.208008L27.697266-44.208008Q32.058594-45.567383 36.533203-45.567383L36.533203-45.567383L36.533203-45.567383Q39.620117-45.567383 41.999023-44.958496L41.999023-44.958496L41.999023-44.958496Q44.377930-44.349609 46.006348-43.174316L46.006348-43.174316L46.006348-43.174316Q47.634766-41.999023 48.484375-40.285645L48.484375-40.285645L48.484375-40.285645Q49.333984-38.572266 49.333984-36.363281L49.333984-36.363281L49.333984-36.363281Q49.333984-33.333008 47.917969-30.685059L47.917969-30.685059L47.917969-30.685059Q46.501953-28.037109 44.038086-26.068848L44.038086-26.068848L44.038086-26.068848Q41.574219-24.100586 38.246582-22.939453L38.246582-22.939453L38.246582-22.939453Q34.918945-21.778320 31.124023-21.750000L31.124023-21.750000L31.124023-22.061523L31.124023-22.061523Q34.465820-22.627930 37.156250-23.944824L37.156250-23.944824L37.156250-23.944824Q39.846680-25.261719 41.729980-27.201660L41.729980-27.201660L41.729980-27.201660Q43.613281-29.141602 44.618652-31.633789L44.618652-31.633789L44.618652-31.633789Q45.624023-34.125977 45.624023-37.014648L45.624023-37.014648L45.624023-37.014648Q45.624023-39.931641 44.505371-41.645020L44.505371-41.645020L44.505371-41.645020Q43.386719-43.358398 40.922852-44.038086L40.922852-44.038086L40.922852-44.038086Q39.393555-43.386719 37.906738-42.168945L37.906738-42.168945L37.906738-42.168945Q36.419922-40.951172 35.428711-39.421875L35.428711-39.421875L35.428711-39.421875Q35.117188-38.968750 34.833984-38.473145L34.833984-38.473145L34.833984-38.473145Q34.550781-37.977539 34.196777-37.212891L34.196777-37.212891L34.196777-37.212891Q33.842773-36.448242 33.375488-35.301270L33.375488-35.301270L33.375488-35.301270Q32.908203-34.154297 32.256836-32.412598L32.256836-32.412598L32.256836-32.412598Q31.605469-30.670898 30.699219-28.221191L30.699219-28.221191L30.699219-28.221191Q29.792969-25.771484 28.575195-22.401367L28.575195-22.401367L28.575195-22.401367Q26.394531-16.397461 24.043945-11.965332L24.043945-11.965332L24.043945-11.965332Q21.693359-7.533203 19.116211-4.630371L19.116211-4.630371L19.116211-4.630371Q16.539063-1.727539 13.721191-0.311523L13.721191-0.311523L13.721191-0.311523Q10.903320 1.104492 7.788086 1.104492ZM29.368164-34.833984L29.368164-34.833984L29.368164-34.833984Q30.331055-36.476563 31.548828-37.935059L31.548828-37.935059L31.548828-37.935059Q32.766602-39.393555 34.111816-40.611328L34.111816-40.611328L34.111816-40.611328Q35.457031-41.829102 36.915527-42.749512L36.915527-42.749512L36.915527-42.749512Q38.374023-43.669922 39.846680-44.264648L39.846680-44.264648L39.846680-44.264648Q39.166992-44.377930 38.416504-44.434570L38.416504-44.434570L38.416504-44.434570Q37.666016-44.491211 36.816406-44.491211L36.816406-44.491211L36.816406-44.491211Q32.568359-44.491211 28.348633-43.160156L28.348633-43.160156L28.348633-43.160156Q24.128906-41.829102 20.249023-39.336914L20.249023-39.336914L20.249023-39.336914Q16.369141-36.844727 12.956543-33.304688L12.956543-33.304688L12.956543-33.304688Q9.543945-29.764648 6.881836-25.346680L6.881836-25.346680L6.881836-25.346680Q4.276367-21.041992 2.931152-16.638184L2.931152-16.638184L2.931152-16.638184Q1.585938-12.234375 1.585938-8.042969L1.585938-8.042969L1.585938-8.042969Q1.585938-3.879883 3.030273-1.982422L3.030273-1.982422L3.030273-1.982422Q4.474609-0.084961 7.561523-0.084961L7.561523-0.084961L7.561523-0.084961Q9.034180-0.084961 10.308594-0.453125L10.308594-0.453125L10.308594-0.453125Q11.583008-0.821289 12.758301-1.670898L12.758301-1.670898L12.758301-1.670898Q13.933594-2.520508 15.038086-3.879883L15.038086-3.879883L15.038086-3.879883Q16.142578-5.239258 17.289551-7.250000L17.289551-7.250000L17.289551-7.250000Q18.436523-9.260742 19.640137-11.951172L19.640137-11.951172L19.640137-11.951172Q20.843750-14.641602 22.231445-18.125000L22.231445-18.125000L22.231445-18.125000Q23.449219-21.240234 24.369629-23.548340L24.369629-23.548340L24.369629-23.548340Q25.290039-25.856445 25.969727-27.527344L25.969727-27.527344L25.969727-27.527344Q26.649414-29.198242 27.130859-30.331055L27.130859-30.331055L27.130859-30.331055Q27.612305-31.463867 28.008789-32.270996L28.008789-32.270996L28.008789-32.270996Q28.405273-33.078125 28.716797-33.672852L28.716797-33.672852L28.716797-33.672852Q29.028320-34.267578 29.368164-34.833984Z" transform="matrix(1,0,0,1,217,136)" data-str-tmatrix="1,0,0,1,216.3,133.55" data-str-color="rgb(24,48,48)" data-str-text="P" data-str-default_text="Enter Text" data-str-fontsize="58" data-str-font_family="Petit Formal Script" data-str-hastextedit="true" data-str-fonticons="true" data-str-bold="false" data-str-italic="false" data-str-data="" data-str-letter_spacing="0" data-str-use_path="false" data-str-txt_dy="0" data-lyt_name="init_1"/>
  </g>
  <g id="surface4">
    <text style="fill:rgb(24,48,48)" font-family="Tulpen One" font-size="47" transform="matrix(1.2657669215675293,0,0,1.2657669215675293,153.92784933340795,226.75227074508047)" xml:space="preserve"><![CDATA[Power Estética]]></text>
    <text style="fill:rgb(38,92,148)" font-family="Tulpen One" font-size="30" transform="matrix(1.3600603677438288,0,0,1.3600603677438288,203.27837007091662,272.1807847806698)" xml:space="preserve"><![CDATA[Locações]]></text>
  </g>
</svg>